<?xml version="1.0" encoding="UTF-8"?>
<svg version="1.1" xmlns="http://www.w3.org/2000/svg" width="178" height="201">
<path d="M0 0 C16.68474997 13.02224388 25.6017206 32.93656085 29.15625 53.421875 C31.93724205 77.91599728 25.8452706 101.67255389 10.625 121.25 C0.01137985 133.94988518 -12.93377709 144.72033497 -29.25 149 C-34.3267795 149 -37.14438492 147.19102705 -40.8125 143.8125 C-42.88161142 140.23134563 -43.41818762 136.98764891 -42.4375 133 C-39.53770622 127.4335617 -36.20152342 125.37383318 -30.8125 122.6875 C-23.75740026 118.94681236 -18.03341862 114.75733935 -12.4375 109 C-11.8909375 108.48566406 -11.344375 107.97132813 -10.78125 107.44140625 C-6.97729506 103.5463992 -4.63672797 98.87124265 -2.1875 94.0625 C-1.8457373 93.39404053 -1.50397461 92.72558105 -1.15185547 92.03686523 C5.64115835 78.16144912 6.53166609 60.65093621 1.53515625 45.984375 C0.63500789 43.94702853 -0.38570191 41.96335643 -1.4375 40 C-1.95957031 40.94359375 -2.48164063 41.8871875 -3.01953125 42.859375 C-12.2903451 59.20905779 -23.70330683 72.19606029 -41.9375 78.5625 C-49.04154786 80.44937685 -57.51337187 81.83869994 -64.58203125 79.19921875 C-67.2575873 77.51316275 -68.68422639 75.62991042 -70.4375 73 C-70.80859375 70.73046875 -70.80859375 70.73046875 -70.875 68.1875 C-70.91496094 67.35605469 -70.95492187 66.52460937 -70.99609375 65.66796875 C-70.20322088 61.88103048 -68.45121689 59.33891533 -65.4375 57 C-62.54774218 56.22705566 -60.17628207 55.78144784 -57.25 55.5 C-46.12392232 53.9469455 -38.91945049 49.67033008 -31.6015625 41.0078125 C-24.80288081 31.55838127 -20.74406547 21.2441477 -18.15917969 9.93945312 C-17.10635801 5.52592948 -16.10725124 2.77332346 -12.4375 0 C-8.1231002 -1.43813327 -4.27011906 -1.75184372 0 0 Z " fill="#006558" transform="translate(146.4375,44)"/>
<path d="M0 0 C6.13610938 2.24491806 8.94151944 8.61479111 12.17578125 13.93359375 C16.56261929 20.70228887 23.20594315 25.03360951 31 27 C35.66953115 27.37966306 40.35047204 27.41386253 45.03320312 27.47851562 C53.90258065 27.725389 53.90258065 27.725389 58 31 C58.5775 31.391875 59.155 31.78375 59.75 32.1875 C61.80601246 35.16871807 62 38.47205301 62 42 C60.99354738 46.02581049 59.29718697 48.48372573 56 51 C43.36400145 55.67999946 27.93739848 53.498203 15.80859375 48.265625 C9.12453264 45.18108575 3.04780899 42.10407712 -1.73828125 36.34765625 C-3.0683137 34.71255517 -3.0683137 34.71255517 -6 34 C-6.70086892 36.06756331 -7.3953365 38.13741729 -8.06640625 40.21484375 C-8.69114861 42.07861488 -9.36651387 43.92613719 -10.08984375 45.75390625 C-15.94433667 61.73396343 -14.22076896 78.94115864 -7.5625 94.3203125 C-0.79554876 108.08194891 9.08368133 117.19913847 22.55078125 124.35546875 C28.08728089 127.30041537 31.8036726 129.6353292 34 135.8125 C34 140.29345845 32.62657007 143.39739332 30 147 C26.65548173 149.5083887 24.66287671 149.97632583 20.5 150.125 C3.05534141 146.96834749 -13.38744616 131.78558613 -23.18359375 117.90625 C-33.4669062 101.88838713 -38.59180792 86.20956738 -38.4375 67.1875 C-38.43379395 66.52569733 -38.43008789 65.86389465 -38.42626953 65.18203735 C-38.34636235 55.16140421 -37.84392601 46.34920987 -34 37 C-33.73155273 36.32759277 -33.46310547 35.65518555 -33.18652344 34.96240234 C-27.6689381 21.38840918 -17.02633033 -1.15432748 0 0 Z " fill="#007163" transform="translate(38,43)"/>
<path d="M0 0 C4.69879216 2.74668436 8.57572071 7.2758509 10.26953125 12.48046875 C11.43596694 19.10736163 10.89684446 24.52042219 7.625 30.5 C4.45576143 34.95406501 1.87069848 37.81388263 -3.375 39.5 C-10.03970162 40.11206443 -16.83263753 40.72275235 -22.375 36.5 C-27.83990329 31.23276342 -30.97411571 26.82955033 -31.6875 19.125 C-31.04715141 11.69695635 -28.58867501 7.14812844 -23.2890625 1.9453125 C-16.84135013 -2.92336827 -7.30379631 -3.18045851 0 0 Z " fill="#007A6B" transform="translate(128.375,1.5)"/>
<path d="M0 0 C5.14338337 2.9958329 8.76038445 7.90615335 10.625 13.5 C11.60785184 21.15220362 10.19305169 27.24445628 5.625 33.5 C0.97897492 38.34886609 -3.39435704 39.87241611 -10.0625 40.0625 C-16.50618561 39.73243927 -20.20935069 38.41382962 -25.0625 34.125 C-29.27955738 29.33807001 -31.14079655 25.54464483 -31.625 19.25 C-31.12489331 11.7483996 -28.622744 7.18157516 -23.2890625 1.9453125 C-16.84135013 -2.92336827 -7.30379631 -3.18045851 0 0 Z " fill="#007A6B" transform="translate(67.375,1.5)"/>
</svg>
